<svg data-v-423bf9ae="" xmlns="http://www.w3.org/2000/svg" viewBox="0 0 847 90" class="iconLeftSlogan"><!----><!----><!----><g data-v-423bf9ae="" id="728e309c-0361-4349-9478-8215b0733d34" fill="black" transform="matrix(5.714285714285714,0,0,5.714285714285714,127.8623759214367,-1.1999991238117218)"><path d="M6.05 0.42L0.14 10.50L2.14 10.50L3.26 8.50L7.43 8.50L7.80 10.50L9.84 10.50L7.87 0.42ZM6.45 2.83L7.15 6.85L4.19 6.85ZM10.54 8.40C10.40 9.77 11.44 10.71 13.22 10.71C14.97 10.71 16.45 9.98 16.76 8.37C17.05 6.92 16.09 6.41 15.30 6.22L13.43 5.81C13.05 5.73 12.84 5.52 12.91 5.21C13.01 4.69 13.68 4.45 14.36 4.45C15.01 4.45 15.62 4.70 15.48 5.46L17.09 5.46C17.43 4.02 16.42 3.01 14.69 3.01C13.09 3.01 11.61 3.65 11.28 5.28C11.06 6.48 11.77 7.10 12.70 7.32L14.55 7.73C14.97 7.84 15.18 8.04 15.09 8.44C14.97 9.10 14.15 9.27 13.54 9.27C12.63 9.27 12.15 8.81 12.18 8.13L10.54 8.40ZM19.47 10.50L20.22 6.54C20.47 5.24 21.27 4.56 22.12 4.56C23.02 4.56 23.24 5.12 23.06 6.09L22.22 10.50L24.07 10.50L24.92 6.03C25.24 4.30 24.91 3.01 22.89 3.01C21.98 3.01 21.29 3.36 20.68 4.16L21.41 0.42L19.56 0.42L17.63 10.50ZM32.40 8.46L30.72 8.09C30.41 8.75 29.78 9.17 29.05 9.17C28.07 9.17 27.43 8.61 27.59 7.38L29.82 7.38C31.47 7.38 32.83 6.90 32.89 5.28C32.96 3.84 31.71 3.01 30.11 3.01C28.21 3.01 26.35 4.26 25.84 6.86C25.34 9.46 26.71 10.71 28.63 10.71C30.32 10.71 31.58 9.95 32.40 8.46ZM29.78 4.55C30.41 4.55 31.01 4.79 31.01 5.29C31.01 5.82 30.60 6.08 29.96 6.08L27.87 6.08C28.20 5.07 29.04 4.55 29.78 4.55ZM33.24 8.40C33.10 9.77 34.13 10.71 35.91 10.71C37.66 10.71 39.14 9.98 39.45 8.37C39.75 6.92 38.78 6.41 38.00 6.22L36.12 5.81C35.74 5.73 35.53 5.52 35.60 5.21C35.70 4.69 36.37 4.45 37.06 4.45C37.70 4.45 38.32 4.70 38.18 5.46L39.79 5.46C40.12 4.02 39.12 3.01 37.38 3.01C35.78 3.01 34.30 3.65 33.98 5.28C33.75 6.48 34.47 7.10 35.39 7.32L37.24 7.73C37.66 7.84 37.87 8.04 37.79 8.44C37.66 9.10 36.85 9.27 36.23 9.27C35.32 9.27 34.85 8.81 34.87 8.13L33.24 8.40ZM43.75 2.18L44.10 0.42L42.25 0.42L41.90 2.18ZM42.17 10.50L43.55 3.22L41.71 3.22L40.32 10.50ZM52.44 10.50L54.04 2.20L57.23 2.20L57.57 0.42L49.22 0.42L48.87 2.20L52.07 2.20L50.48 10.50ZM60.41 3.22L59.65 7.18C59.39 8.48 58.56 9.16 57.71 9.16C56.81 9.16 56.63 8.60 56.83 7.63L57.67 3.22L55.82 3.22L54.96 7.69C54.63 9.42 54.96 10.71 56.98 10.71C57.89 10.71 58.63 10.32 59.35 9.45L59.15 10.50L60.87 10.50L62.26 3.22ZM66.25 8.95C66.00 9.02 65.79 9.03 65.65 9.03C64.99 9.03 65.09 8.58 65.21 7.95L65.84 4.68L67.19 4.68L67.45 3.22L66.11 3.22L66.54 0.99L64.57 1.60L64.26 3.22L63.22 3.22L62.96 4.68L63.99 4.68L63.27 8.37C63.00 9.80 63.31 10.64 64.83 10.64C65.10 10.64 65.79 10.57 66.09 10.43ZM67.61 6.86C67.10 9.46 68.45 10.71 70.41 10.71C72.38 10.71 74.20 9.46 74.70 6.86C75.21 4.26 73.86 3.01 71.89 3.01C69.93 3.01 68.11 4.26 67.61 6.86ZM69.45 6.86C69.75 5.32 70.59 4.55 71.60 4.55C72.60 4.55 73.15 5.32 72.86 6.86C72.56 8.41 71.72 9.17 70.71 9.17C69.71 9.17 69.16 8.41 69.45 6.86ZM77.08 10.50L77.74 7.06C78.01 5.64 78.78 4.75 79.98 4.75C80.42 4.75 80.70 4.87 80.95 5.03L81.59 3.39C81.30 3.12 80.93 3.01 80.37 3.01C79.37 3.01 78.75 3.50 78.11 4.48L78.34 3.22L76.62 3.22L75.24 10.50ZM84.92 2.18L85.27 0.42L83.43 0.42L83.08 2.18ZM83.34 10.50L84.73 3.22L82.88 3.22L81.49 10.50ZM89.24 9.70C89.21 9.97 89.21 10.32 89.40 10.50L91.27 10.50C91.06 10.23 90.99 9.76 91.14 9.02L91.70 6.02C92.12 3.89 91.13 3.01 89.24 3.01C87.86 3.01 86.38 3.53 85.69 5.21L87.21 5.70C87.50 5.04 87.99 4.51 88.84 4.51C89.74 4.51 90.05 5.04 89.92 5.73L89.88 5.92C89.49 6.09 88.90 6.19 88.12 6.27C86.37 6.47 85.11 7.07 84.81 8.64C84.55 10.02 85.53 10.71 86.84 10.71C87.71 10.71 88.45 10.46 89.24 9.70ZM89.42 8.30C89.04 8.79 88.24 9.31 87.50 9.31C86.88 9.31 86.60 9.02 86.69 8.51C86.81 7.81 87.42 7.60 88.12 7.48C88.84 7.34 89.35 7.21 89.66 7.10ZM94.35 10.50L96.32 0.21L94.36 0.77L92.50 10.50ZM102.12 10.50L102.93 6.24L107.39 6.24L106.60 10.50L108.56 10.50L110.49 0.42L108.53 0.42L107.74 4.47L103.28 4.47L104.05 0.42L102.09 0.42L100.16 10.50ZM116.13 3.22L115.37 7.18C115.11 8.48 114.28 9.16 113.43 9.16C112.53 9.16 112.35 8.60 112.55 7.63L113.39 3.22L111.54 3.22L110.68 7.69C110.35 9.42 110.68 10.71 112.70 10.71C113.61 10.71 114.35 10.32 115.07 9.45L114.87 10.50L116.59 10.50L117.98 3.22ZM120.09 0.42L118.16 10.50L119.87 10.50L120.02 9.60C120.32 10.30 120.89 10.71 121.76 10.71C123.58 10.71 125.16 9.32 125.64 6.86C126.11 4.40 125.02 3.01 123.20 3.01C122.53 3.01 121.81 3.26 121.27 3.89L121.94 0.42ZM120.54 6.86C120.85 5.31 121.66 4.55 122.61 4.55C123.58 4.55 124.10 5.31 123.79 6.86C123.49 8.41 122.64 9.17 121.73 9.17C120.86 9.17 120.25 8.41 120.54 6.86Z"></path></g><!----><g data-v-423bf9ae="" id="86665736-67df-45d8-9774-48e1a90dc7c1" transform="matrix(1.2073730275693784,0,0,1.2073730275693784,-5.368043672710776,-14.639859139329339)" stroke="none" fill="black"><path d="M76.196 32.766c2.966 4.912 5.76 9.688 5.269 18.447-.926 16.549-13.371 27.776-21.619 35.844-.926-.646-1.356-1.868-1.761-3.143 3.706-2.429 6.729-5.674 9.846-8.8-5.886.37-7.414-6.251-8.791-11.95 4.512 1.825 9.927 3.668 9.488 10.693 4.796-5.416 11.739-13.802 11.782-25.583.026-6.253-2.242-11.141-4.739-15.3-5.373-.657-5.82-7.176-5.812-14.26 3.245 2.422 9.488 7.924 6.337 14.052m6.5 7.549c4.628 1.074 8.727-4.206 10.547-6.92-2.526-.265-5.962-1.251-8.79-.213-2.652.977-5.936 6.16-1.757 7.133m-7.731 2.095c2.402.295 4.192-.84 3.509-3.354-1.142-4.236-7.065-5.527-11.774-5.241 1.828 3.263 4.123 8.086 8.265 8.595m-54.149-.425c-.37 2.297 1.016 3.42 3.168 3.145 2.932-.364 4.663-3.315 5.98-5.655.844-1.511 2.144-2.951 1.752-4.195-4.093.618-10.112 1.899-10.9 6.705m-8.609 1.68c2.221.865 6.109.506 6.333-2.095.478-5.719-9.656-5.017-12.833-3.358.86 1.67 3.822 4.409 6.5 5.453m66.447 8.388c.628-5.438-7.026-7.79-11.603-7.549 1.369 2.632 2.889 6.197 5.278 7.969 1.714 1.271 6.027 2.129 6.325-.42m5.622-5.033c-2.66 2.167-2.213 5.958 1.407 6.079 4.465.146 7.241-4.391 9.316-7.125-3.099-.452-8.122-1.074-10.723 1.046m-62.224 8.597c5.734 2.535 8.868-4.613 10.547-9.643-5.29.867-11.498 2.725-10.547 9.643m-4.219-1.054c.753-5.855-9.617-5.291-12.833-3.35v.42c2.041 1.257 3.991 4.191 6.677 5.03 2.492.775 5.855.19 6.156-2.1m46.408-2.09c.985 3.476 2.07 7.928 4.387 10.063 1.093.99 4.163 2.574 5.277 1.042 1.645-2.247-.977-6.397-2.281-7.542-2.402-2.117-5.437-2.558-7.383-3.563M27.498 65.678c6.01 1.55 8.011-6.362 8.438-12.159-3.892 2.404-10.345 4.901-8.438 12.159m52.034-2.936c-1.382 2.17-.418 4.399 1.58 4.821 3.495.731 6.151-2.084 7.736-3.771.977-1.041 2.406-2.299 2.285-3.151-3.68-1.257-9.741-.818-11.601 2.101m-56.778 4.821c-.538-5.046-9.376-3.969-12.829-2.514 1.063 1.463 3.47 4.158 5.794 5.243 2.76 1.292 7.414.879 7.035-2.729m47.81 11.951c.026 1.068 1.215 2.102 1.938 2.308 4.951 1.412 8.58-4.038 10.724-6.922-4.434-1.163-12.769-.871-12.662 4.614m-51.332-1.257c2.359 2.247 5.321 6.526 10.026 5.863 1.128-.154 2.901-1.05 2.987-2.721.294-5.69-9.771-4.717-13.013-3.142m15.649-1.894c5.054-.13 6.931-6.957 7.034-12.993-3.728 2.644-9.505 4.985-8.084 12.373-.177 0-.207-.181-.353-.216-5.73-6.139-13.711-13.707-13.888-26.202-.077-5.652 1.61-9.886 3.513-13.834 5.032-.654 5.084-8.474 4.396-14.673-3.186 2.224-8.83 10.108-4.917 14.673-2.187 4.096-4.073 8.38-4.042 14.674.026 9.692 4.637 16.83 9.135 22.642 4.749 6.131 10.59 10.849 16.174 14.465.68-.801 1.021-1.997 1.408-3.151-3.652-2.213-7.926-4.805-10.376-7.758m14.417-.241c.366 1.325.964 1.325 1.33 0l9.829-35.598c.361-1.324-.461-2.409-1.834-2.409H41.304c-1.377 0-2.2 1.085-1.833 2.409l9.827 35.598zm6.518-46.104c-1.516 7.013-6.923 5.993-6.923 5.993s-2.617-.172-3.96-1.516-2.549-5.441 1.171-11.089c3.719-5.648-1.584-10.676-1.584-10.676 9.135.298 12.622 11.149 11.296 17.288zm-4.839-8.697c-.271 1.352-.818 2.747-1.739 4.146-2.462 3.732-1.877 6.038-1.683 6.348.232.183 1.033.409 1.92.493l.142.004c.469 0 1.869-.011 2.536-3.086.443-2.05.124-5.205-1.176-7.905z"></path></g><!----><g data-v-423bf9ae="" id="17b61d01-b5a7-454c-b16f-55aa00b4305e" fill="black" transform="matrix(1.2197068474840538,0,0,1.2197068474840538,128.54039416564962,56.4628482969013)"><path d="M0.10 3.51C0.10 3.75 0.20 3.77 0.36 3.77L0.80 3.77C0.88 3.77 3.67 10.99 3.71 11.07C4.20 12.18 4.30 12.99 4.51 12.99C4.77 12.99 4.83 12.67 5.11 12.26C5.26 12.04 5.35 12.01 5.50 11.66L8.74 4.06C8.85 3.81 8.83 3.77 9.20 3.77C9.42 3.77 9.49 3.75 9.49 3.56C9.49 3.32 9.45 3.26 9.25 3.26C9.11 3.26 8.58 3.30 8.16 3.30C7.74 3.30 6.92 3.26 6.69 3.26C6.50 3.26 6.44 3.29 6.44 3.51C6.44 3.75 6.57 3.77 6.73 3.77L7.73 3.77C7.80 3.77 7.81 3.81 7.81 3.95C7.81 4.63 6.13 8.72 5.40 10.63C5.26 10.99 5.18 11.17 5.14 11.17C5.10 11.17 5.00 10.98 4.86 10.60C4.28 9.10 3.15 6.01 2.63 4.49C2.55 4.27 2.46 3.93 2.46 3.79L2.46 3.77L3.44 3.77C3.67 3.77 3.74 3.75 3.74 3.56C3.74 3.32 3.70 3.26 3.50 3.26C3.18 3.26 2.10 3.30 1.68 3.30C1.26 3.30 0.55 3.26 0.36 3.26C0.18 3.26 0.10 3.28 0.10 3.51ZM16.97 12.39C16.97 12.63 17.01 12.68 17.21 12.68C17.53 12.68 18.28 12.64 19.00 12.64C19.66 12.64 20.45 12.68 20.68 12.68C20.85 12.68 20.87 12.61 20.87 12.40C20.87 12.24 20.85 12.18 20.68 12.18L19.71 12.18C19.61 12.18 19.59 9.55 19.59 7.76L19.59 5.87C19.59 5.14 19.61 3.70 19.71 3.70L20.62 3.70C20.85 3.70 20.87 3.68 20.87 3.49C20.87 3.25 20.85 3.19 20.68 3.19C20.36 3.19 19.68 3.23 19.03 3.23C18.21 3.23 17.50 3.19 17.28 3.19C17.09 3.19 17.02 3.21 17.02 3.44C17.02 3.68 17.11 3.70 17.28 3.70L18.20 3.70C18.24 3.70 18.31 4.79 18.31 5.71L18.31 7.08C18.31 8.92 18.30 12.18 18.19 12.18L17.26 12.18C17.04 12.18 16.97 12.19 16.97 12.39ZM28.84 7.91C28.84 11.40 31.21 12.89 33.80 12.89C35.69 12.89 37.69 11.89 37.69 11.58C37.69 11.12 37.70 10.68 37.70 10.33C37.70 9.81 37.72 9.56 37.84 9.56L38.28 9.56C38.42 9.56 38.43 9.39 38.43 9.30C38.43 9.18 38.42 9.06 38.28 9.06C38.05 9.06 37.69 9.10 37.02 9.10C36.57 9.10 35.83 9.07 35.14 9.06C35 9.06 35 9.24 35 9.35C35 9.45 35.03 9.56 35.15 9.56L36.37 9.56C36.41 9.56 36.47 9.87 36.47 10.33C36.47 10.82 36.46 11.41 36.43 11.65C36.41 11.76 35.77 12.39 34.19 12.39C31.95 12.39 30.35 10.29 30.35 7.94C30.35 5.42 31.91 3.54 33.91 3.54C35.80 3.54 36.97 4.87 36.97 5.03C36.97 5.15 36.92 6.12 36.92 6.17C36.92 6.31 36.96 6.36 37.23 6.36C37.42 6.36 37.49 6.33 37.49 6.15C37.49 5.43 37.53 3.75 37.53 3.56C37.53 3.36 37.44 3.33 37.23 3.33C37.00 3.33 36.97 3.39 36.97 3.56L36.97 3.91C36.97 3.99 36.93 4.02 36.81 3.92C36.53 3.72 35.53 3.08 33.96 3.08C31.12 3.08 28.84 4.79 28.84 7.91ZM46.33 12.39C46.33 12.63 46.37 12.68 46.56 12.68C46.89 12.68 47.64 12.64 48.36 12.64C49.01 12.64 49.81 12.68 50.04 12.68C50.20 12.68 50.23 12.61 50.23 12.40C50.23 12.24 50.20 12.18 50.04 12.18L49.07 12.18C48.97 12.18 48.94 9.55 48.94 7.76L48.94 5.87C48.94 5.14 48.97 3.70 49.07 3.70L49.98 3.70C50.20 3.70 50.23 3.68 50.23 3.49C50.23 3.25 50.20 3.19 50.04 3.19C49.71 3.19 49.04 3.23 48.38 3.23C47.57 3.23 46.86 3.19 46.63 3.19C46.45 3.19 46.38 3.21 46.38 3.44C46.38 3.68 46.47 3.70 46.63 3.70L47.56 3.70C47.60 3.70 47.67 4.79 47.67 5.71L47.67 7.08C47.67 8.92 47.66 12.18 47.54 12.18L46.62 12.18C46.40 12.18 46.33 12.19 46.33 12.39ZM58.13 12.39C58.13 12.63 58.16 12.68 58.35 12.68C58.67 12.68 59.64 12.64 60.06 12.64C60.48 12.64 64.83 12.68 65.16 12.68C65.42 12.68 65.49 12.66 65.51 12.49C65.56 12.08 65.80 10.72 65.80 10.60C65.80 10.47 65.65 10.44 65.48 10.43C65.38 10.42 65.30 10.46 65.28 10.56L65.11 11.76C65.07 12.05 65.06 12.03 64.83 12.04C64.68 12.05 62.17 12.12 60.75 12.12C60.70 12.12 60.66 11.38 60.66 10.54L60.66 6.66C60.66 5.40 60.68 3.70 60.77 3.70L61.75 3.70C61.99 3.70 62.02 3.63 62.02 3.44C62.02 3.23 62.01 3.19 61.77 3.19C61.45 3.19 60.51 3.23 60.09 3.23C59.67 3.23 58.73 3.19 58.51 3.19C58.28 3.19 58.23 3.22 58.23 3.44C58.23 3.65 58.27 3.70 58.46 3.70L59.29 3.70C59.33 3.70 59.36 4.23 59.36 4.90L59.36 8.13C59.36 10.07 59.33 12.18 59.25 12.18L58.41 12.18C58.18 12.18 58.13 12.21 58.13 12.39ZM73.28 12.39C73.28 12.63 73.28 12.68 73.47 12.68C73.64 12.68 73.96 12.64 74.54 12.64C75.15 12.64 75.70 12.68 75.85 12.68C76.02 12.68 76.02 12.61 76.02 12.40C76.02 12.24 76.02 12.18 75.85 12.18L74.77 12.18C74.77 12.18 74.76 12.18 74.76 12.17C74.77 11.87 75.54 9.90 75.89 9.02C75.96 8.83 75.98 8.79 76.19 8.79L79.02 8.79C79.16 8.79 79.16 8.81 79.23 9.03C79.49 9.77 80.21 11.89 80.21 12.17C80.21 12.18 80.19 12.18 80.19 12.18L79.42 12.18C79.20 12.18 79.18 12.19 79.18 12.39C79.18 12.63 79.20 12.68 79.37 12.68C79.69 12.68 80.56 12.64 80.98 12.64C81.40 12.64 82.07 12.68 82.28 12.68C82.42 12.68 82.43 12.61 82.43 12.40C82.43 12.24 82.42 12.18 82.28 12.18L81.79 12.18C81.69 12.18 80.67 9.34 80.11 7.78L78.43 3.07C78.41 3.00 78.34 2.94 78.26 2.94C78.13 2.94 78.04 3.16 77.95 3.35C77.80 3.71 77.56 3.84 77.45 4.13L75.96 7.57C75.78 8.01 74.07 12.18 73.95 12.18L73.53 12.18C73.30 12.18 73.28 12.19 73.28 12.39ZM76.17 8.33C76.17 8.30 76.20 8.23 76.24 8.13L77.62 4.77C77.66 4.66 77.69 4.61 77.71 4.61C77.73 4.61 77.74 4.63 77.78 4.77L78.95 8.18C78.97 8.25 78.99 8.29 78.99 8.32C78.99 8.36 78.96 8.37 78.86 8.37L76.36 8.37C76.17 8.37 76.17 8.34 76.17 8.33ZM88.52 5.01C88.52 5.17 88.70 5.17 88.83 5.17C88.98 5.17 89.03 5.15 89.04 4.97L89.15 3.89C89.17 3.81 89.71 3.75 90.47 3.75L92.46 3.75C92.51 3.75 92.54 4.35 92.54 4.97C92.54 6.43 92.48 12.18 92.36 12.18L91.49 12.18C91.27 12.18 91.22 12.19 91.22 12.39C91.22 12.63 91.24 12.68 91.43 12.68C91.76 12.68 92.74 12.64 93.16 12.64C93.58 12.64 94.51 12.68 94.84 12.68C95.00 12.68 95.03 12.61 95.03 12.40C95.03 12.24 95.00 12.18 94.84 12.18L93.84 12.18C93.81 12.18 93.81 11.76 93.81 11.31C93.81 9.56 93.90 5.96 93.90 5.92C93.91 5.18 93.91 3.75 94.01 3.75L95.62 3.75C96.33 3.75 97.16 3.78 97.16 3.85C97.16 3.99 97.12 4.90 97.12 4.97C97.12 5.12 97.19 5.17 97.37 5.17C97.57 5.17 97.64 5.17 97.64 5.03C97.64 3.93 97.69 3.40 97.69 3.14C97.69 2.94 97.61 2.94 97.41 2.94C97.26 2.94 97.20 2.98 97.19 3.16C97.19 3.23 96.54 3.28 95.70 3.28L90.71 3.28C90.05 3.28 89.24 3.28 89.24 3.21L89.24 3.07C89.24 2.94 89.11 2.94 89.01 2.94C88.79 2.94 88.76 3.00 88.75 3.19C88.69 3.89 88.52 4.97 88.52 5.01ZM105.45 12.39C105.45 12.63 105.48 12.68 105.67 12.68C105.99 12.68 106.96 12.64 107.38 12.64C107.80 12.64 112.31 12.68 112.63 12.68C112.76 12.68 112.91 12.66 112.91 12.49C112.91 12.07 112.95 11.23 112.95 10.53C112.95 10.39 112.80 10.39 112.67 10.39C112.56 10.39 112.43 10.39 112.43 10.51C112.42 11.06 112.42 11.41 112.39 11.76C112.36 12.01 112.36 12.04 112.27 12.04C112.11 12.04 109.48 12.08 107.98 12.08C107.91 12.08 107.87 10.11 107.83 8.26C107.83 8.06 107.87 8.09 108.01 8.09L110.29 8.09C110.99 8.09 111.02 8.20 111.02 8.30L111.02 9.00C111.02 9.14 111.20 9.14 111.31 9.14C111.41 9.14 111.54 9.13 111.54 9.02C111.54 8.83 111.51 8.33 111.51 7.83C111.51 7.32 111.54 6.83 111.54 6.71C111.54 6.59 111.40 6.58 111.30 6.58C111.19 6.58 111.02 6.59 111.02 6.72L111.02 7.45C111.02 7.62 110.57 7.63 110.29 7.63L107.95 7.63C107.84 7.63 107.83 7.63 107.83 7.45C107.81 6.75 107.80 6.06 107.80 5.46C107.80 5.12 107.80 3.71 107.88 3.71C109.12 3.71 111.62 3.75 111.62 3.81C111.62 3.99 111.58 4.83 111.58 4.89C111.58 5.04 111.65 5.10 111.83 5.10C112.03 5.10 112.10 5.08 112.10 4.94C112.10 3.85 112.15 3.36 112.15 3.09C112.15 2.91 112.07 2.90 111.87 2.90C111.68 2.90 111.68 2.95 111.65 3.11C111.64 3.25 111.71 3.25 110.80 3.25C110.18 3.25 108.04 3.29 107.27 3.29C106.78 3.29 105.84 3.25 105.74 3.25C105.62 3.25 105.56 3.30 105.56 3.49C105.56 3.72 105.63 3.74 105.80 3.74L106.46 3.74C106.51 3.74 106.58 4.79 106.58 5.71C106.58 5.80 106.64 8.27 106.64 9.83L106.64 11.17C106.64 11.84 106.61 12.18 106.58 12.18L105.73 12.18C105.50 12.18 105.45 12.21 105.45 12.39ZM120.92 14.55C120.92 14.64 120.99 14.83 121.11 14.83C121.28 14.83 122.72 13.45 122.72 12.25C122.72 11.86 121.94 11.33 121.69 11.33C121.59 11.33 120.97 11.66 120.97 11.93C120.97 12.21 121.90 12.45 121.90 13.08C121.90 13.78 120.92 14.42 120.92 14.55ZM140.56 12.39C140.56 12.63 140.59 12.68 140.78 12.68C141.11 12.68 142.07 12.64 142.49 12.64C142.91 12.64 147.42 12.68 147.74 12.68C147.87 12.68 148.02 12.66 148.02 12.49C148.02 12.07 148.06 11.23 148.06 10.53C148.06 10.39 147.91 10.39 147.78 10.39C147.67 10.39 147.55 10.39 147.55 10.51C147.53 11.06 147.53 11.41 147.50 11.76C147.48 12.01 147.48 12.04 147.38 12.04C147.22 12.04 144.59 12.08 143.09 12.08C143.02 12.08 142.98 10.11 142.94 8.26C142.94 8.06 142.98 8.09 143.12 8.09L145.40 8.09C146.10 8.09 146.13 8.20 146.13 8.30L146.13 9.00C146.13 9.14 146.31 9.14 146.43 9.14C146.52 9.14 146.65 9.13 146.65 9.02C146.65 8.83 146.62 8.33 146.62 7.83C146.62 7.32 146.65 6.83 146.65 6.71C146.65 6.59 146.51 6.58 146.41 6.58C146.30 6.58 146.13 6.59 146.13 6.72L146.13 7.45C146.13 7.62 145.68 7.63 145.40 7.63L143.07 7.63C142.95 7.63 142.94 7.63 142.94 7.45C142.93 6.75 142.91 6.06 142.91 5.46C142.91 5.12 142.91 3.71 143.00 3.71C144.23 3.71 146.73 3.75 146.73 3.81C146.73 3.99 146.69 4.83 146.69 4.89C146.69 5.04 146.76 5.10 146.94 5.10C147.14 5.10 147.21 5.08 147.21 4.94C147.21 3.85 147.27 3.36 147.27 3.09C147.27 2.91 147.18 2.90 146.99 2.90C146.79 2.90 146.79 2.95 146.76 3.11C146.75 3.25 146.82 3.25 145.91 3.25C145.29 3.25 143.15 3.29 142.38 3.29C141.89 3.29 140.95 3.25 140.85 3.25C140.73 3.25 140.67 3.30 140.67 3.49C140.67 3.72 140.74 3.74 140.91 3.74L141.57 3.74C141.62 3.74 141.69 4.79 141.69 5.71C141.69 5.80 141.75 8.27 141.75 9.83L141.75 11.17C141.75 11.84 141.72 12.18 141.69 12.18L140.84 12.18C140.62 12.18 140.56 12.21 140.56 12.39ZM155.76 5.01C155.76 5.17 155.95 5.17 156.07 5.17C156.23 5.17 156.27 5.15 156.28 4.97L156.39 3.89C156.41 3.81 156.95 3.75 157.71 3.75L159.70 3.75C159.75 3.75 159.78 4.35 159.78 4.97C159.78 6.43 159.73 12.18 159.60 12.18L158.73 12.18C158.51 12.18 158.47 12.19 158.47 12.39C158.47 12.63 158.48 12.68 158.68 12.68C159.00 12.68 159.98 12.64 160.40 12.64C160.82 12.64 161.76 12.68 162.08 12.68C162.25 12.68 162.27 12.61 162.27 12.40C162.27 12.24 162.25 12.18 162.08 12.18L161.08 12.18C161.06 12.18 161.06 11.76 161.06 11.31C161.06 9.56 161.14 5.96 161.14 5.92C161.15 5.18 161.15 3.75 161.25 3.75L162.86 3.75C163.58 3.75 164.40 3.78 164.40 3.85C164.40 3.99 164.36 4.90 164.36 4.97C164.36 5.12 164.43 5.17 164.61 5.17C164.81 5.17 164.88 5.17 164.88 5.03C164.88 3.93 164.93 3.40 164.93 3.14C164.93 2.94 164.85 2.94 164.65 2.94C164.50 2.94 164.44 2.98 164.43 3.16C164.43 3.23 163.79 3.28 162.95 3.28L157.95 3.28C157.29 3.28 156.48 3.28 156.48 3.21L156.48 3.07C156.48 2.94 156.35 2.94 156.25 2.94C156.03 2.94 156.00 3.00 155.99 3.19C155.93 3.89 155.76 4.97 155.76 5.01ZM182.49 12.39C182.49 12.63 182.50 12.68 182.70 12.68C182.88 12.68 183.26 12.64 183.88 12.64C184.51 12.64 185.07 12.68 185.39 12.68C185.56 12.68 185.56 12.61 185.56 12.40C185.56 12.24 185.56 12.18 185.39 12.18L184.18 12.18C184.14 12.18 184.13 11.54 184.13 10.79C184.13 9.46 184.14 7.48 184.14 5.99C184.14 5.25 184.14 4.84 184.16 4.28C184.16 4.02 184.23 4.14 184.35 4.28L191.24 12.66C191.32 12.75 191.41 12.89 191.52 12.89C191.63 12.89 191.70 12.77 191.70 12.54C191.70 12.39 191.87 6.65 191.88 4.48C191.88 4.06 191.91 3.70 191.94 3.70L192.57 3.70C192.79 3.70 192.85 3.68 192.85 3.49C192.85 3.25 192.85 3.19 192.65 3.19C192.46 3.19 192.02 3.23 191.46 3.23C190.85 3.23 190.05 3.19 189.95 3.19C189.78 3.19 189.78 3.26 189.78 3.47C189.78 3.64 189.78 3.70 189.95 3.70L191.25 3.70C191.27 3.70 191.27 4.33 191.27 4.44C191.27 5.85 191.30 8.33 191.30 9.70L191.30 10.29C191.30 10.57 191.28 10.65 191.06 10.37L185.37 3.39C185.26 3.25 185.23 3.19 185.07 3.19C184.98 3.19 184.60 3.23 184.30 3.23C184.00 3.23 182.92 3.19 182.73 3.19C182.56 3.19 182.53 3.26 182.53 3.47C182.53 3.64 182.56 3.70 182.73 3.70L183.64 3.70C183.64 4.17 183.60 8.53 183.53 10.79C183.50 11.69 183.51 12.18 183.40 12.18L182.76 12.18C182.53 12.18 182.49 12.19 182.49 12.39ZM200.96 8.15C200.96 11.17 203.29 12.80 205.55 12.80C208.33 12.80 210.31 10.89 210.31 8.06C210.31 5.33 208.56 3.11 205.76 3.11C203.15 3.11 200.96 5.10 200.96 8.15ZM202.36 7.77C202.36 5.64 203.64 3.58 205.62 3.58C207.86 3.58 208.94 5.81 208.94 7.94C208.94 10.08 207.83 12.32 205.56 12.32C203.57 12.32 202.36 10.28 202.36 7.77ZM218.41 12.39C218.41 12.63 218.43 12.68 218.62 12.68C218.81 12.68 219.18 12.64 219.80 12.64C220.43 12.64 220.99 12.68 221.31 12.68C221.48 12.68 221.48 12.61 221.48 12.40C221.48 12.24 221.48 12.18 221.31 12.18L220.11 12.18C220.07 12.18 220.05 11.54 220.05 10.79C220.05 9.46 220.07 7.48 220.07 5.99C220.07 5.25 220.07 4.84 220.08 4.28C220.08 4.02 220.15 4.14 220.28 4.28L227.16 12.66C227.25 12.75 227.33 12.89 227.44 12.89C227.56 12.89 227.63 12.77 227.63 12.54C227.63 12.39 227.79 6.65 227.81 4.48C227.81 4.06 227.84 3.70 227.86 3.70L228.49 3.70C228.72 3.70 228.77 3.68 228.77 3.49C228.77 3.25 228.77 3.19 228.58 3.19C228.38 3.19 227.95 3.23 227.39 3.23C226.77 3.23 225.97 3.19 225.88 3.19C225.71 3.19 225.71 3.26 225.71 3.47C225.71 3.64 225.71 3.70 225.88 3.70L227.18 3.70C227.19 3.70 227.19 4.33 227.19 4.44C227.19 5.85 227.22 8.33 227.22 9.70L227.22 10.29C227.22 10.57 227.21 10.65 226.98 10.37L221.30 3.39C221.19 3.25 221.16 3.19 220.99 3.19C220.91 3.19 220.53 3.23 220.22 3.23C219.93 3.23 218.85 3.19 218.65 3.19C218.48 3.19 218.46 3.26 218.46 3.47C218.46 3.64 218.48 3.70 218.65 3.70L219.56 3.70C219.56 4.17 219.52 8.53 219.45 10.79C219.42 11.69 219.44 12.18 219.32 12.18L218.68 12.18C218.46 12.18 218.41 12.19 218.41 12.39ZM246.54 12.46C246.54 12.63 246.55 12.70 246.74 12.70C246.89 12.70 248.12 12.64 248.51 12.64C249.37 12.64 250.25 12.70 251.10 12.70C253.72 12.70 256.12 11.07 256.12 7.91C256.12 4.89 253.78 3.07 250.74 3.07C250.18 3.07 248.92 3.23 247.88 3.23C247.41 3.23 246.95 3.22 246.89 3.22C246.71 3.22 246.69 3.32 246.69 3.49C246.69 3.68 246.76 3.70 246.89 3.70L247.86 3.67C247.88 3.67 247.88 4.20 247.88 4.72C247.88 5.91 247.80 12.21 247.72 12.21L246.82 12.21C246.64 12.21 246.54 12.22 246.54 12.46ZM249.12 11.40C249.12 9.46 249.12 7.52 249.13 5.60C249.13 5.03 249.17 3.61 249.21 3.60C249.51 3.53 250.10 3.51 250.45 3.51C253.01 3.51 254.62 5.75 254.62 7.73C254.62 8.95 254.58 12.25 249.90 12.25C249.63 12.25 249.23 12.25 249.13 12.21C249.12 12.19 249.12 11.79 249.12 11.40ZM264.22 12.39C264.22 12.63 264.25 12.68 264.45 12.68C264.77 12.68 265.73 12.64 266.15 12.64C266.57 12.64 271.08 12.68 271.40 12.68C271.53 12.68 271.68 12.66 271.68 12.49C271.68 12.07 271.73 11.23 271.73 10.53C271.73 10.39 271.57 10.39 271.45 10.39C271.33 10.39 271.21 10.39 271.21 10.51C271.19 11.06 271.19 11.41 271.17 11.76C271.14 12.01 271.14 12.04 271.04 12.04C270.89 12.04 268.25 12.08 266.76 12.08C266.69 12.08 266.64 10.11 266.60 8.26C266.60 8.06 266.64 8.09 266.78 8.09L269.07 8.09C269.77 8.09 269.79 8.20 269.79 8.30L269.79 9.00C269.79 9.14 269.98 9.14 270.09 9.14C270.19 9.14 270.31 9.13 270.31 9.02C270.31 8.83 270.28 8.33 270.28 7.83C270.28 7.32 270.31 6.83 270.31 6.71C270.31 6.59 270.17 6.58 270.07 6.58C269.96 6.58 269.79 6.59 269.79 6.72L269.79 7.45C269.79 7.62 269.35 7.63 269.07 7.63L266.73 7.63C266.62 7.63 266.60 7.63 266.60 7.45C266.59 6.75 266.57 6.06 266.57 5.46C266.57 5.12 266.57 3.71 266.66 3.71C267.89 3.71 270.40 3.75 270.40 3.81C270.40 3.99 270.35 4.83 270.35 4.89C270.35 5.04 270.42 5.10 270.61 5.10C270.80 5.10 270.87 5.08 270.87 4.94C270.87 3.85 270.93 3.36 270.93 3.09C270.93 2.91 270.84 2.90 270.65 2.90C270.45 2.90 270.45 2.95 270.42 3.11C270.41 3.25 270.48 3.25 269.57 3.25C268.95 3.25 266.81 3.29 266.04 3.29C265.55 3.29 264.61 3.25 264.52 3.25C264.39 3.25 264.33 3.30 264.33 3.49C264.33 3.72 264.40 3.74 264.57 3.74L265.23 3.74C265.29 3.74 265.36 4.79 265.36 5.71C265.36 5.80 265.41 8.27 265.41 9.83L265.41 11.17C265.41 11.84 265.38 12.18 265.36 12.18L264.50 12.18C264.28 12.18 264.22 12.21 264.22 12.39ZM279.69 3.49C279.69 3.72 279.80 3.74 279.97 3.74L280.59 3.74C280.64 3.74 280.71 4.79 280.71 5.71C280.71 5.80 280.77 8.27 280.77 9.83L280.77 11.17C280.77 11.84 280.76 12.18 280.70 12.18L280.11 12.18C279.89 12.18 279.82 12.19 279.82 12.39C279.82 12.63 279.83 12.68 280.03 12.68C280.24 12.68 281.08 12.64 281.50 12.64C281.92 12.64 282.86 12.68 283.18 12.68C283.35 12.68 283.37 12.61 283.37 12.40C283.37 12.24 283.35 12.18 283.18 12.18L282.04 12.18C281.99 12.18 282.00 10.16 281.96 8.33C281.96 8.08 281.95 8.09 282.14 8.09L284.56 8.09C285.26 8.09 285.29 8.19 285.29 8.30L285.29 9.16C285.29 9.28 285.47 9.28 285.59 9.28C285.68 9.28 285.81 9.28 285.81 9.17C285.81 8.99 285.78 8.33 285.78 7.83C285.78 7.32 285.81 6.82 285.81 6.69C285.81 6.58 285.70 6.58 285.57 6.58C285.40 6.58 285.29 6.58 285.29 6.71L285.29 7.45C285.29 7.62 284.84 7.63 284.56 7.63L282.14 7.63C281.93 7.63 281.96 7.66 281.96 7.45C281.95 7.13 281.93 6.15 281.93 5.26C281.93 4.52 281.95 3.71 282.02 3.71C283.42 3.71 285.60 3.75 285.89 3.79C285.89 3.96 285.85 4.82 285.85 4.89C285.85 5.04 285.92 5.10 286.10 5.10C286.30 5.10 286.37 5.08 286.37 4.94C286.37 3.85 286.43 3.36 286.43 3.09C286.43 2.93 286.34 2.90 286.15 2.90C286.02 2.90 285.95 2.90 285.92 3.11C285.91 3.25 285.98 3.25 285.03 3.25C284.42 3.25 282.14 3.29 281.40 3.29C280.91 3.29 279.97 3.25 279.87 3.25C279.75 3.25 279.69 3.30 279.69 3.49ZM294.25 12.39C294.25 12.63 294.29 12.68 294.49 12.68C294.81 12.68 295.57 12.64 296.28 12.64C296.94 12.64 297.74 12.68 297.96 12.68C298.13 12.68 298.16 12.61 298.16 12.40C298.16 12.24 298.13 12.18 297.96 12.18L297.00 12.18C296.90 12.18 296.87 9.55 296.87 7.76L296.87 5.87C296.87 5.14 296.90 3.70 297.00 3.70L297.91 3.70C298.13 3.70 298.16 3.68 298.16 3.49C298.16 3.25 298.13 3.19 297.96 3.19C297.64 3.19 296.97 3.23 296.31 3.23C295.50 3.23 294.78 3.19 294.56 3.19C294.38 3.19 294.31 3.21 294.31 3.44C294.31 3.68 294.39 3.70 294.56 3.70L295.48 3.70C295.53 3.70 295.60 4.79 295.60 5.71L295.60 7.08C295.60 8.92 295.58 12.18 295.47 12.18L294.55 12.18C294.32 12.18 294.25 12.19 294.25 12.39ZM306.12 7.91C306.12 11.31 308.49 12.87 311.08 12.87C312.86 12.87 314.64 11.90 314.68 11.59C314.85 10.29 314.90 9.70 314.90 9.66C314.90 9.56 314.86 9.52 314.69 9.51C314.64 9.51 314.58 9.49 314.54 9.49C314.43 9.49 314.37 9.53 314.34 9.70L314.16 11.33C314.15 11.45 313.04 12.24 311.47 12.24C309.34 12.24 307.64 10.29 307.64 7.94C307.64 5.42 309.06 3.54 311.07 3.54C312.91 3.54 314.26 5.01 314.26 5.17C314.26 5.29 314.20 6.40 314.20 6.45C314.20 6.59 314.24 6.64 314.51 6.64C314.71 6.64 314.78 6.62 314.78 6.44C314.78 5.73 314.83 3.92 314.83 3.67C314.83 3.47 314.72 3.44 314.51 3.44C314.29 3.44 314.26 3.50 314.26 3.67L314.26 4.05C314.26 4.16 314.22 4.16 314.09 4.06C313.81 3.86 312.83 3.04 311.16 3.04C308.32 3.04 306.12 4.96 306.12 7.91ZM323.15 12.39C323.15 12.63 323.19 12.68 323.39 12.68C323.71 12.68 324.46 12.64 325.18 12.64C325.84 12.64 326.63 12.68 326.86 12.68C327.03 12.68 327.05 12.61 327.05 12.40C327.05 12.24 327.03 12.18 326.86 12.18L325.89 12.18C325.79 12.18 325.77 9.55 325.77 7.76L325.77 5.87C325.77 5.14 325.79 3.70 325.89 3.70L326.80 3.70C327.03 3.70 327.05 3.68 327.05 3.49C327.05 3.25 327.03 3.19 326.86 3.19C326.54 3.19 325.86 3.23 325.21 3.23C324.39 3.23 323.68 3.19 323.46 3.19C323.27 3.19 323.20 3.21 323.20 3.44C323.20 3.68 323.29 3.70 323.46 3.70L324.38 3.70C324.42 3.70 324.49 4.79 324.49 5.71L324.49 7.08C324.49 8.92 324.48 12.18 324.37 12.18L323.44 12.18C323.22 12.18 323.15 12.19 323.15 12.39ZM334.95 12.39C334.95 12.63 334.98 12.68 335.17 12.68C335.50 12.68 336.46 12.64 336.88 12.64C337.30 12.64 341.81 12.68 342.13 12.68C342.26 12.68 342.41 12.66 342.41 12.49C342.41 12.07 342.45 11.23 342.45 10.53C342.45 10.39 342.30 10.39 342.17 10.39C342.06 10.39 341.94 10.39 341.94 10.51C341.92 11.06 341.92 11.41 341.89 11.76C341.87 12.01 341.87 12.04 341.77 12.04C341.61 12.04 338.98 12.08 337.48 12.08C337.41 12.08 337.37 10.11 337.33 8.26C337.33 8.06 337.37 8.09 337.51 8.09L339.79 8.09C340.49 8.09 340.52 8.20 340.52 8.30L340.52 9.00C340.52 9.14 340.70 9.14 340.82 9.14C340.91 9.14 341.04 9.13 341.04 9.02C341.04 8.83 341.01 8.33 341.01 7.83C341.01 7.32 341.04 6.83 341.04 6.71C341.04 6.59 340.90 6.58 340.80 6.58C340.69 6.58 340.52 6.59 340.52 6.72L340.52 7.45C340.52 7.62 340.07 7.63 339.79 7.63L337.46 7.63C337.34 7.63 337.33 7.63 337.33 7.45C337.32 6.75 337.30 6.06 337.30 5.46C337.30 5.12 337.30 3.71 337.39 3.71C338.62 3.71 341.12 3.75 341.12 3.81C341.12 3.99 341.08 4.83 341.08 4.89C341.08 5.04 341.15 5.10 341.33 5.10C341.53 5.10 341.60 5.08 341.60 4.94C341.60 3.85 341.66 3.36 341.66 3.09C341.66 2.91 341.57 2.90 341.38 2.90C341.18 2.90 341.18 2.95 341.15 3.11C341.14 3.25 341.21 3.25 340.30 3.25C339.68 3.25 337.54 3.29 336.77 3.29C336.28 3.29 335.34 3.25 335.24 3.25C335.12 3.25 335.06 3.30 335.06 3.49C335.06 3.72 335.13 3.74 335.30 3.74L335.96 3.74C336.01 3.74 336.08 4.79 336.08 5.71C336.08 5.80 336.14 8.27 336.14 9.83L336.14 11.17C336.14 11.84 336.11 12.18 336.08 12.18L335.23 12.18C335.01 12.18 334.95 12.21 334.95 12.39ZM350.42 12.39C350.42 12.63 350.43 12.68 350.63 12.68C350.81 12.68 351.19 12.64 351.81 12.64C352.44 12.64 353.00 12.68 353.32 12.68C353.49 12.68 353.49 12.61 353.49 12.40C353.49 12.24 353.49 12.18 353.32 12.18L352.11 12.18C352.07 12.18 352.06 11.54 352.06 10.79C352.06 9.46 352.07 7.48 352.07 5.99C352.07 5.25 352.07 4.84 352.09 4.28C352.09 4.02 352.16 4.14 352.28 4.28L359.17 12.66C359.25 12.75 359.34 12.89 359.45 12.89C359.56 12.89 359.63 12.77 359.63 12.54C359.63 12.39 359.80 6.65 359.81 4.48C359.81 4.06 359.84 3.70 359.87 3.70L360.50 3.70C360.72 3.70 360.78 3.68 360.78 3.49C360.78 3.25 360.78 3.19 360.58 3.19C360.39 3.19 359.95 3.23 359.39 3.23C358.78 3.23 357.98 3.19 357.88 3.19C357.71 3.19 357.71 3.26 357.71 3.47C357.71 3.64 357.71 3.70 357.88 3.70L359.18 3.70C359.20 3.70 359.20 4.33 359.20 4.44C359.20 5.85 359.23 8.33 359.23 9.70L359.23 10.29C359.23 10.57 359.21 10.65 358.99 10.37L353.30 3.39C353.19 3.25 353.16 3.19 353.00 3.19C352.91 3.19 352.53 3.23 352.23 3.23C351.93 3.23 350.85 3.19 350.66 3.19C350.49 3.19 350.46 3.26 350.46 3.47C350.46 3.64 350.49 3.70 350.66 3.70L351.57 3.70C351.57 4.17 351.53 8.53 351.46 10.79C351.43 11.69 351.44 12.18 351.33 12.18L350.69 12.18C350.46 12.18 350.42 12.19 350.42 12.39ZM368.55 5.01C368.55 5.17 368.73 5.17 368.86 5.17C369.01 5.17 369.05 5.15 369.07 4.97L369.18 3.89C369.19 3.81 369.74 3.75 370.50 3.75L372.48 3.75C372.54 3.75 372.57 4.35 372.57 4.97C372.57 6.43 372.51 12.18 372.39 12.18L371.52 12.18C371.29 12.18 371.25 12.19 371.25 12.39C371.25 12.63 371.27 12.68 371.46 12.68C371.78 12.68 372.76 12.64 373.18 12.64C373.60 12.64 374.54 12.68 374.86 12.68C375.03 12.68 375.06 12.61 375.06 12.40C375.06 12.24 375.03 12.18 374.86 12.18L373.87 12.18C373.84 12.18 373.84 11.76 373.84 11.31C373.84 9.56 373.93 5.96 373.93 5.92C373.94 5.18 373.94 3.75 374.04 3.75L375.65 3.75C376.36 3.75 377.19 3.78 377.19 3.85C377.19 3.99 377.15 4.90 377.15 4.97C377.15 5.12 377.22 5.17 377.40 5.17C377.59 5.17 377.66 5.17 377.66 5.03C377.66 3.93 377.72 3.40 377.72 3.14C377.72 2.94 377.64 2.94 377.44 2.94C377.29 2.94 377.23 2.98 377.22 3.16C377.22 3.23 376.57 3.28 375.73 3.28L370.73 3.28C370.08 3.28 369.26 3.28 369.26 3.21L369.26 3.07C369.26 2.94 369.14 2.94 369.04 2.94C368.82 2.94 368.79 3.00 368.77 3.19C368.72 3.89 368.55 4.97 368.55 5.01ZM395.14 12.39C395.14 12.63 395.14 12.68 395.33 12.68C395.50 12.68 395.82 12.64 396.40 12.64C397.01 12.64 397.56 12.68 397.71 12.68C397.88 12.68 397.88 12.61 397.88 12.40C397.88 12.24 397.88 12.18 397.71 12.18L396.63 12.18C396.63 12.18 396.62 12.18 396.62 12.17C396.63 11.87 397.40 9.90 397.75 9.02C397.82 8.83 397.84 8.79 398.05 8.79L400.88 8.79C401.02 8.79 401.02 8.81 401.09 9.03C401.35 9.77 402.07 11.89 402.07 12.17C402.07 12.18 402.05 12.18 402.05 12.18L401.28 12.18C401.06 12.18 401.04 12.19 401.04 12.39C401.04 12.63 401.06 12.68 401.23 12.68C401.55 12.68 402.42 12.64 402.84 12.64C403.26 12.64 403.93 12.68 404.14 12.68C404.28 12.68 404.29 12.61 404.29 12.40C404.29 12.24 404.28 12.18 404.14 12.18L403.65 12.18C403.55 12.18 402.53 9.34 401.97 7.78L400.29 3.07C400.27 3.00 400.20 2.94 400.12 2.94C399.99 2.94 399.90 3.16 399.81 3.35C399.66 3.71 399.42 3.84 399.31 4.13L397.82 7.57C397.64 8.01 395.93 12.18 395.81 12.18L395.39 12.18C395.16 12.18 395.14 12.19 395.14 12.39ZM398.03 8.33C398.03 8.30 398.06 8.23 398.10 8.13L399.48 4.77C399.52 4.66 399.55 4.61 399.57 4.61C399.59 4.61 399.60 4.63 399.64 4.77L400.81 8.18C400.83 8.25 400.85 8.29 400.85 8.32C400.85 8.36 400.82 8.37 400.72 8.37L398.22 8.37C398.03 8.37 398.03 8.34 398.03 8.33ZM411.56 7.84C411.56 10.93 413.74 12.25 416.21 12.59C416.32 12.60 416.36 12.60 416.36 12.61C416.36 12.63 416.35 12.64 416.26 12.68C415.83 12.89 414.88 13.30 414.53 13.40C414.23 13.47 413.98 13.48 413.74 13.48C413.64 13.48 413.53 13.47 413.43 13.47C413.20 13.47 413.04 13.51 413.04 13.72C413.04 13.90 413.36 14.35 413.59 14.35C413.73 14.35 414.19 14.10 414.53 14.10C415.25 14.10 417.48 15.26 419.41 15.26C420.45 15.26 421.65 14.38 421.65 14.14C421.65 14.06 421.47 13.86 421.41 13.86C421.29 13.86 420.87 14.29 419.92 14.29C419.31 14.29 418.36 13.93 417.41 13.72C416.84 13.59 416.01 13.57 415.56 13.54C415.32 13.52 415.45 13.48 415.56 13.43C416.18 13.15 417.56 12.54 417.90 12.45C419.92 11.87 421.34 10.11 421.34 7.84C421.34 5.10 419.26 3.11 416.46 3.11C413.87 3.11 411.56 4.79 411.56 7.84ZM412.86 7.62C412.86 5.49 414.34 3.58 416.32 3.58C418.57 3.58 419.89 5.82 419.89 7.95C419.89 11.06 417.45 12.31 417.05 12.31C416.74 12.31 414.82 11.80 414.04 10.91C413.34 10.11 412.86 8.89 412.86 7.62ZM429.45 3.51C429.45 3.75 429.53 3.77 429.70 3.77L430.23 3.77C430.29 3.77 430.29 4.12 430.29 4.55C430.29 5.66 430.28 8.96 430.28 9.42C430.28 11.13 430.53 12.80 433.38 12.80C434.46 12.80 435.62 12.38 436.28 12.00C436.53 11.86 436.83 11.72 436.91 11.72C437.18 11.72 437.44 12.74 437.78 12.74C438.10 12.74 438.12 12.35 438.12 12.25C438.12 11.96 438.17 10.08 438.21 8.16C438.27 6.12 438.26 3.77 438.37 3.77L438.69 3.77C438.91 3.77 438.98 3.75 438.98 3.56C438.98 3.32 438.94 3.26 438.75 3.26C438.61 3.26 438.07 3.30 437.65 3.30C437.23 3.30 436.44 3.26 436.21 3.26C436.03 3.26 435.93 3.28 435.93 3.51C435.93 3.75 436.04 3.77 436.21 3.77L436.91 3.77C436.98 3.77 437.00 4.30 437.00 4.87L437.00 9.14C437.00 11.19 437.00 11.12 436.66 11.34C436.27 11.61 435.46 12.08 434.28 12.08C432.31 12.08 431.51 11.17 431.51 9.41C431.51 8.82 431.58 3.77 431.69 3.77L432.60 3.77C432.82 3.77 432.87 3.75 432.87 3.56C432.87 3.32 432.85 3.26 432.66 3.26C432.33 3.26 431.45 3.30 431.03 3.30C430.61 3.30 429.93 3.26 429.70 3.26C429.52 3.26 429.45 3.28 429.45 3.51ZM446.46 12.39C446.46 12.63 446.46 12.68 446.66 12.68C446.82 12.68 447.15 12.64 447.72 12.64C448.34 12.64 448.88 12.68 449.04 12.68C449.20 12.68 449.20 12.61 449.20 12.40C449.20 12.24 449.20 12.18 449.04 12.18L447.96 12.18C447.96 12.18 447.94 12.18 447.94 12.17C447.96 11.87 448.73 9.90 449.08 9.02C449.15 8.83 449.16 8.79 449.37 8.79L452.20 8.79C452.34 8.79 452.34 8.81 452.41 9.03C452.68 9.77 453.39 11.89 453.39 12.17C453.39 12.18 453.38 12.18 453.38 12.18L452.61 12.18C452.38 12.18 452.37 12.19 452.37 12.39C452.37 12.63 452.38 12.68 452.55 12.68C452.87 12.68 453.74 12.64 454.16 12.64C454.58 12.64 455.25 12.68 455.46 12.68C455.60 12.68 455.62 12.61 455.62 12.40C455.62 12.24 455.60 12.18 455.46 12.18L454.97 12.18C454.87 12.18 453.85 9.34 453.29 7.78L451.61 3.07C451.60 3.00 451.53 2.94 451.44 2.94C451.32 2.94 451.22 3.16 451.14 3.35C450.98 3.71 450.74 3.84 450.63 4.13L449.15 7.57C448.97 8.01 447.26 12.18 447.13 12.18L446.71 12.18C446.49 12.18 446.46 12.19 446.46 12.39ZM449.36 8.33C449.36 8.30 449.39 8.23 449.43 8.13L450.80 4.77C450.84 4.66 450.87 4.61 450.90 4.61C450.91 4.61 450.93 4.63 450.97 4.77L452.13 8.18C452.16 8.25 452.17 8.29 452.17 8.32C452.17 8.36 452.14 8.37 452.05 8.37L449.54 8.37C449.36 8.37 449.36 8.34 449.36 8.33ZM463.37 12.39C463.37 12.63 463.40 12.68 463.60 12.68C463.92 12.68 464.88 12.64 465.30 12.64C465.72 12.64 470.23 12.68 470.55 12.68C470.68 12.68 470.83 12.66 470.83 12.49C470.83 12.07 470.88 11.23 470.88 10.53C470.88 10.39 470.72 10.39 470.60 10.39C470.48 10.39 470.36 10.39 470.36 10.51C470.34 11.06 470.34 11.41 470.32 11.76C470.29 12.01 470.29 12.04 470.19 12.04C470.04 12.04 467.40 12.08 465.91 12.08C465.84 12.08 465.79 10.11 465.75 8.26C465.75 8.06 465.79 8.09 465.93 8.09L468.22 8.09C468.92 8.09 468.94 8.20 468.94 8.30L468.94 9.00C468.94 9.14 469.13 9.14 469.24 9.14C469.34 9.14 469.46 9.13 469.46 9.02C469.46 8.83 469.43 8.33 469.43 7.83C469.43 7.32 469.46 6.83 469.46 6.71C469.46 6.59 469.32 6.58 469.22 6.58C469.11 6.58 468.94 6.59 468.94 6.72L468.94 7.45C468.94 7.62 468.50 7.63 468.22 7.63L465.88 7.63C465.77 7.63 465.75 7.63 465.75 7.45C465.74 6.75 465.72 6.06 465.72 5.46C465.72 5.12 465.72 3.71 465.81 3.71C467.04 3.71 469.55 3.75 469.55 3.81C469.55 3.99 469.50 4.83 469.50 4.89C469.50 5.04 469.57 5.10 469.76 5.10C469.95 5.10 470.02 5.08 470.02 4.94C470.02 3.85 470.08 3.36 470.08 3.09C470.08 2.91 469.99 2.90 469.80 2.90C469.60 2.90 469.60 2.95 469.57 3.11C469.56 3.25 469.63 3.25 468.72 3.25C468.10 3.25 465.96 3.29 465.19 3.29C464.70 3.29 463.76 3.25 463.67 3.25C463.54 3.25 463.48 3.30 463.48 3.49C463.48 3.72 463.55 3.74 463.72 3.74L464.38 3.74C464.44 3.74 464.51 4.79 464.51 5.71C464.51 5.80 464.56 8.27 464.56 9.83L464.56 11.17C464.56 11.84 464.53 12.18 464.51 12.18L463.65 12.18C463.43 12.18 463.37 12.21 463.37 12.39Z"></path></g></svg>