<svg data-v-423bf9ae="" xmlns="http://www.w3.org/2000/svg" viewBox="0 0 717.7669852120536 60" class="font"><!----><!----><!----><g data-v-423bf9ae="" id="4596e56a-dee6-4e8e-b287-29b7c0730019" fill="black" transform="matrix(5.714285714285714,0,0,5.714285714285714,-0.8000081117664308,-1.1999991238117218)"><path d="M6.05 0.42L0.14 10.50L2.14 10.50L3.26 8.50L7.43 8.50L7.80 10.50L9.84 10.50L7.87 0.42ZM6.45 2.83L7.15 6.85L4.19 6.85ZM10.54 8.40C10.40 9.77 11.44 10.71 13.22 10.71C14.97 10.71 16.45 9.98 16.76 8.37C17.05 6.92 16.09 6.41 15.30 6.22L13.43 5.81C13.05 5.73 12.84 5.52 12.91 5.21C13.01 4.69 13.68 4.45 14.36 4.45C15.01 4.45 15.62 4.70 15.48 5.46L17.09 5.46C17.43 4.02 16.42 3.01 14.69 3.01C13.09 3.01 11.61 3.65 11.28 5.28C11.06 6.48 11.77 7.10 12.70 7.32L14.55 7.73C14.97 7.84 15.18 8.04 15.09 8.44C14.97 9.10 14.15 9.27 13.54 9.27C12.63 9.27 12.15 8.81 12.18 8.13L10.54 8.40ZM19.47 10.50L20.22 6.54C20.47 5.24 21.27 4.56 22.12 4.56C23.02 4.56 23.24 5.12 23.06 6.09L22.22 10.50L24.07 10.50L24.92 6.03C25.24 4.30 24.91 3.01 22.89 3.01C21.98 3.01 21.29 3.36 20.68 4.16L21.41 0.42L19.56 0.42L17.63 10.50ZM32.40 8.46L30.72 8.09C30.41 8.75 29.78 9.17 29.05 9.17C28.07 9.17 27.43 8.61 27.59 7.38L29.82 7.38C31.47 7.38 32.83 6.90 32.89 5.28C32.96 3.84 31.71 3.01 30.11 3.01C28.21 3.01 26.35 4.26 25.84 6.86C25.34 9.46 26.71 10.71 28.63 10.71C30.32 10.71 31.58 9.95 32.40 8.46ZM29.78 4.55C30.41 4.55 31.01 4.79 31.01 5.29C31.01 5.82 30.60 6.08 29.96 6.08L27.87 6.08C28.20 5.07 29.04 4.55 29.78 4.55ZM33.24 8.40C33.10 9.77 34.13 10.71 35.91 10.71C37.66 10.71 39.14 9.98 39.45 8.37C39.75 6.92 38.78 6.41 38.00 6.22L36.12 5.81C35.74 5.73 35.53 5.52 35.60 5.21C35.70 4.69 36.37 4.45 37.06 4.45C37.70 4.45 38.32 4.70 38.18 5.46L39.79 5.46C40.12 4.02 39.12 3.01 37.38 3.01C35.78 3.01 34.30 3.65 33.98 5.28C33.75 6.48 34.47 7.10 35.39 7.32L37.24 7.73C37.66 7.84 37.87 8.04 37.79 8.44C37.66 9.10 36.85 9.27 36.23 9.27C35.32 9.27 34.85 8.81 34.87 8.13L33.24 8.40ZM43.75 2.18L44.10 0.42L42.25 0.42L41.90 2.18ZM42.17 10.50L43.55 3.22L41.71 3.22L40.32 10.50ZM52.44 10.50L54.04 2.20L57.23 2.20L57.57 0.42L49.22 0.42L48.87 2.20L52.07 2.20L50.48 10.50ZM60.41 3.22L59.65 7.18C59.39 8.48 58.56 9.16 57.71 9.16C56.81 9.16 56.63 8.60 56.83 7.63L57.67 3.22L55.82 3.22L54.96 7.69C54.63 9.42 54.96 10.71 56.98 10.71C57.89 10.71 58.63 10.32 59.35 9.45L59.15 10.50L60.87 10.50L62.26 3.22ZM66.25 8.95C66.00 9.02 65.79 9.03 65.65 9.03C64.99 9.03 65.09 8.58 65.21 7.95L65.84 4.68L67.19 4.68L67.45 3.22L66.11 3.22L66.54 0.99L64.57 1.60L64.26 3.22L63.22 3.22L62.96 4.68L63.99 4.68L63.27 8.37C63.00 9.80 63.31 10.64 64.83 10.64C65.10 10.64 65.79 10.57 66.09 10.43ZM67.61 6.86C67.10 9.46 68.45 10.71 70.41 10.71C72.38 10.71 74.20 9.46 74.70 6.86C75.21 4.26 73.86 3.01 71.89 3.01C69.93 3.01 68.11 4.26 67.61 6.86ZM69.45 6.86C69.75 5.32 70.59 4.55 71.60 4.55C72.60 4.55 73.15 5.32 72.86 6.86C72.56 8.41 71.72 9.17 70.71 9.17C69.71 9.17 69.16 8.41 69.45 6.86ZM77.08 10.50L77.74 7.06C78.01 5.64 78.78 4.75 79.98 4.75C80.42 4.75 80.70 4.87 80.95 5.03L81.59 3.39C81.30 3.12 80.93 3.01 80.37 3.01C79.37 3.01 78.75 3.50 78.11 4.48L78.34 3.22L76.62 3.22L75.24 10.50ZM84.92 2.18L85.27 0.42L83.43 0.42L83.08 2.18ZM83.34 10.50L84.73 3.22L82.88 3.22L81.49 10.50ZM89.24 9.70C89.21 9.97 89.21 10.32 89.40 10.50L91.27 10.50C91.06 10.23 90.99 9.76 91.14 9.02L91.70 6.02C92.12 3.89 91.13 3.01 89.24 3.01C87.86 3.01 86.38 3.53 85.69 5.21L87.21 5.70C87.50 5.04 87.99 4.51 88.84 4.51C89.74 4.51 90.05 5.04 89.92 5.73L89.88 5.92C89.49 6.09 88.90 6.19 88.12 6.27C86.37 6.47 85.11 7.07 84.81 8.64C84.55 10.02 85.53 10.71 86.84 10.71C87.71 10.71 88.45 10.46 89.24 9.70ZM89.42 8.30C89.04 8.79 88.24 9.31 87.50 9.31C86.88 9.31 86.60 9.02 86.69 8.51C86.81 7.81 87.42 7.60 88.12 7.48C88.84 7.34 89.35 7.21 89.66 7.10ZM94.35 10.50L96.32 0.21L94.36 0.77L92.50 10.50ZM102.12 10.50L102.93 6.24L107.39 6.24L106.60 10.50L108.56 10.50L110.49 0.42L108.53 0.42L107.74 4.47L103.28 4.47L104.05 0.42L102.09 0.42L100.16 10.50ZM116.13 3.22L115.37 7.18C115.11 8.48 114.28 9.16 113.43 9.16C112.53 9.16 112.35 8.60 112.55 7.63L113.39 3.22L111.54 3.22L110.68 7.69C110.35 9.42 110.68 10.71 112.70 10.71C113.61 10.71 114.35 10.32 115.07 9.45L114.87 10.50L116.59 10.50L117.98 3.22ZM120.09 0.42L118.16 10.50L119.87 10.50L120.02 9.60C120.32 10.30 120.89 10.71 121.76 10.71C123.58 10.71 125.16 9.32 125.64 6.86C126.11 4.40 125.02 3.01 123.20 3.01C122.53 3.01 121.81 3.26 121.27 3.89L121.94 0.42ZM120.54 6.86C120.85 5.31 121.66 4.55 122.61 4.55C123.58 4.55 124.10 5.31 123.79 6.86C123.49 8.41 122.64 9.17 121.73 9.17C120.86 9.17 120.25 8.41 120.54 6.86Z"></path></g><!----><!----></svg>